<svg xmlns="http://www.w3.org/2000/svg" viewBox="0 0 512 512">
<line x1="412.0" y1="150.0" x2="440.0" y2="150.0" stroke="#0B7DD4" stroke-width="20" stroke-linecap="round"/>
<line x1="391.5" y1="199.5" x2="411.3" y2="219.3" stroke="#0B7DD4" stroke-width="20" stroke-linecap="round"/>
<line x1="342.0" y1="220.0" x2="342.0" y2="248.0" stroke="#0B7DD4" stroke-width="20" stroke-linecap="round"/>
<line x1="292.5" y1="199.5" x2="272.7" y2="219.3" stroke="#0B7DD4" stroke-width="20" stroke-linecap="round"/>
<line x1="272.0" y1="150.0" x2="244.0" y2="150.0" stroke="#0B7DD4" stroke-width="20" stroke-linecap="round"/>
<line x1="292.5" y1="100.5" x2="272.7" y2="80.7" stroke="#0B7DD4" stroke-width="20" stroke-linecap="round"/>
<line x1="342.0" y1="80.0" x2="342.0" y2="52.0" stroke="#0B7DD4" stroke-width="20" stroke-linecap="round"/>
<line x1="391.5" y1="100.5" x2="411.3" y2="80.7" stroke="#0B7DD4" stroke-width="20" stroke-linecap="round"/>
<circle cx="342" cy="150" r="52" fill="#0B7DD4"/>
<circle cx="342" cy="150" r="36" fill="#E0F5FF"/>
<path d="M 62 318 C 42 318 38 296 40 278 C 42 260 54 246 72 242 C 68 214 78 192 100 182 C 118 174 140 176 155 188 C 158 170 170 152 192 146 C 212 140 234 148 246 164 C 254 146 270 128 294 124 C 318 120 338 136 344 158 C 360 152 378 160 390 176 C 404 196 402 220 388 236 C 408 242 422 260 422 282 C 422 306 404 320 384 320 Z" fill="#B8EDF6"/>
<path d="M 90 316 C 76 316 70 302 72 290 C 74 278 84 268 96 265 C 93 244 102 228 120 220 C 134 214 152 216 164 226 C 167 210 178 194 198 188 C 215 182 234 189 244 202 C 252 188 266 172 285 168 C 303 164 320 174 326 190 C 340 184 354 191 362 204 C 370 218 366 236 354 248 C 370 252 382 266 382 282 C 382 300 368 314 354 316 Z" fill="#8DD8EC" opacity="0.45"/>
<path d="M 62 318 C 42 318 38 296 40 278 C 42 260 54 246 72 242 C 68 214 78 192 100 182 C 118 174 140 176 155 188 C 158 170 170 152 192 146 C 212 140 234 148 246 164 C 254 146 270 128 294 124 C 318 120 338 136 344 158 C 360 152 378 160 390 176 C 404 196 402 220 388 236 C 408 242 422 260 422 282 C 422 306 404 320 384 320 Z" fill="none" stroke="#0B7DD4" stroke-width="22" stroke-linejoin="round" stroke-linecap="round"/>
<line x1="150" y1="356" x2="120" y2="418" stroke="#0B7DD4" stroke-width="22" stroke-linecap="round"/>
<line x1="244" y1="356" x2="214" y2="418" stroke="#0B7DD4" stroke-width="22" stroke-linecap="round"/>
<line x1="338" y1="356" x2="308" y2="418" stroke="#0B7DD4" stroke-width="22" stroke-linecap="round"/>
</svg>